<svg width="32" height="32" viewBox="0 0 32 32" fill="none" xmlns="http://www.w3.org/2000/svg">
<rect width="32" height="32" rx="16" fill="white"/>
<g clip-path="url(#clip0_222_1075)">
<path d="M12.3129 8.98201V15.7112C12.3131 15.7707 12.2927 15.8283 12.255 15.8742C12.2173 15.9202 12.1647 15.9515 12.1064 15.9628C11.2483 16.1254 8.01662 16.5563 8.01662 13.8266V9.01762C8.01662 6.36865 12.3129 6.30931 12.3129 8.98676" fill="#F05A22"/>
<path d="M18.1923 13.6211V20.3515C18.1925 20.411 18.1718 20.4686 18.1339 20.5144C18.0959 20.5601 18.0431 20.5911 17.9847 20.602C17.1266 20.7657 13.8949 21.1954 13.8949 18.4657V13.652C13.8949 11.0042 18.1923 10.9449 18.1923 13.6211Z" fill="#F05A22"/>
<path d="M24.0707 17.6931V24.4236C24.0709 24.4832 24.0502 24.5409 24.0123 24.5869C23.9743 24.6329 23.9215 24.6641 23.863 24.6752C23.0049 24.8378 19.7732 25.2686 19.7732 22.5389V17.724C19.7732 15.0762 24.0707 15.0169 24.0707 17.6931Z" fill="#F05A22"/>
</g>
<defs>
<clipPath id="clip0_222_1075">
<rect width="16.2" height="18" fill="white" transform="translate(8 7)"/>
</clipPath>
</defs>
</svg>
