<svg width="32" height="32" viewBox="0 0 32 32" fill="none" xmlns="http://www.w3.org/2000/svg">
<rect width="32" height="32" rx="16" fill="white"/>
<rect x="20" y="15" width="3" height="13" fill="white"/>
<path d="M19.6949 13.1471C20.1878 13.0806 20.7179 12.79 21.0582 12.2896L22.6455 13.3709C21.9758 14.3548 20.9261 14.9705 19.7069 15.0751C19.5903 15.0851 19.4747 15.0903 19.3597 15.09C19.0311 15.0889 18.6004 15.045 18.294 14.953C17.8987 14.8342 17.4683 14.6188 17.1734 14.4164C16.8786 14.2141 16.6846 14.0786 16.3801 14.0054C16.0756 13.9322 15.7802 13.9615 15.5142 14.069C15.1099 14.2324 14.9314 14.5707 14.9314 15.1091C14.9314 15.9394 14.9295 16.501 14.9282 16.8994C14.9263 17.4269 14.9255 17.668 14.9314 17.8672C14.9352 17.9911 14.9343 18.0976 14.9331 18.2403C14.9323 18.327 14.9314 18.427 14.9314 18.5524C14.9314 19.3615 15.5519 19.4491 15.8036 19.4492H15.804C15.9543 19.4492 16.703 19.4037 16.7071 18.5213V16.5137H18.6315V26.1643H16.7071V21.2372C16.4137 21.3342 16.1078 21.386 15.804 21.386H15.8027C15.5122 21.386 15.2102 21.3399 14.9314 21.2543V26.1643H13.0187V17.8627C13.0125 17.6555 13.0135 17.3865 13.0154 16.842C13.0168 16.4416 13.0187 15.8923 13.0187 15.1091C13.0187 13.7709 13.6546 12.7362 14.8054 12.2706C15.3398 12.0544 15.8526 12.0099 16.314 12.0356C16.8921 12.0677 17.3071 12.2116 17.6625 12.4159C18.0179 12.6202 18.1606 12.801 18.4975 12.9602C18.8343 13.1194 19.202 13.2136 19.6949 13.1471Z" fill="#2ABCEC"/>
<path fill-rule="evenodd" clip-rule="evenodd" d="M13.3102 8.38923C13.3102 6.99992 14.4365 5.87402 15.826 5.87402C17.2152 5.87402 18.3415 6.99992 18.3415 8.38923C18.3415 9.77859 17.2152 10.9049 15.826 10.9049C14.4365 10.9049 13.3102 9.77859 13.3102 8.38923ZM15.0204 8.38923C15.0204 8.83424 15.3813 9.19479 15.826 9.19479C16.2709 9.19479 16.6314 8.83424 16.6314 8.38923C16.6314 7.94482 16.2709 7.58414 15.826 7.58414C15.3813 7.58414 15.0204 7.94482 15.0204 8.38923Z" fill="#2ABCEC"/>
</svg>
