<svg width="22" height="22" viewBox="0 0 22 22" fill="none" xmlns="http://www.w3.org/2000/svg">
<path d="M18.4953 11.6554C18.3643 13.0735 17.8321 14.425 16.961 15.5517C16.0899 16.6784 14.9159 17.5337 13.5764 18.0175C12.237 18.5013 10.7874 18.5936 9.39738 18.2837C8.00735 17.9738 6.73434 17.2744 5.7273 16.2673C4.72026 15.2603 4.02085 13.9873 3.71091 12.5972C3.40097 11.2072 3.49331 9.75766 3.97713 8.41819C4.46096 7.07873 5.31625 5.90476 6.44293 5.03365C7.56961 4.16254 8.92108 3.63032 10.3392 3.49927C9.50894 4.62252 9.10941 6.00647 9.21328 7.3994C9.31716 8.79233 9.91754 10.1017 10.9052 11.0894C11.8929 12.0771 13.2023 12.6775 14.5952 12.7813C15.9881 12.8852 17.3721 12.4857 18.4953 11.6554Z" stroke="#F2F2F2" stroke-width="1.66622" stroke-linecap="round" stroke-linejoin="round"/>
</svg>
